<?xml version="1.0" standalone="no"?>
<!DOCTYPE svg PUBLIC "-//W3C//DTD SVG 20010904//EN"
 "http://www.w3.org/TR/2001/REC-SVG-20010904/DTD/svg10.dtd">
<svg version="1.0" xmlns="http://www.w3.org/2000/svg"
 width="512.000000pt" height="512.000000pt" viewBox="0 0 512.000000 512.000000"
 preserveAspectRatio="xMidYMid meet">
<metadata>
Created by potrace 1.14, written by Peter Selinger 2001-2017
</metadata>
<g transform="translate(0.000000,512.000000) scale(0.100000,-0.100000)"
fill="#000000" stroke="none">
<path d="M3232 4945 c-121 -28 -264 -127 -334 -230 -38 -57 -75 -144 -87 -206
-5 -30 -9 -119 -7 -199 3 -164 8 -182 80 -248 32 -29 58 -43 100 -53 l56 -12
0 -52 c0 -88 24 -148 80 -198 61 -55 105 -67 248 -67 132 0 180 15 239 72 50
49 73 109 73 189 l0 56 41 7 c51 8 128 57 155 99 37 56 45 100 43 230 -2 161
-12 214 -60 314 -111 231 -373 355 -627 298z"/>
<path d="M1165 4862 c-108 -32 -209 -123 -253 -227 -29 -70 -30 -84 -31 -300
l-1 -190 -28 -13 c-39 -17 -86 -65 -108 -110 -29 -58 -25 -165 9 -219 27 -43
93 -103 114 -103 7 0 14 -6 15 -12 2 -21 4 -32 11 -63 4 -16 9 -39 11 -50 24
-121 142 -300 248 -376 l47 -34 0 -75 1 -75 -88 -32 c-48 -17 -139 -50 -202
-72 -221 -79 -321 -141 -421 -259 -59 -70 -103 -150 -136 -247 l-28 -80 0
-330 0 -330 31 -65 c17 -36 52 -88 77 -115 l47 -49 0 -118 0 -118 -125 0
c-131 0 -176 -11 -189 -45 -3 -9 -6 -95 -6 -191 0 -241 1 -244 158 -244 l82 0
0 -242 c0 -134 3 -253 6 -266 15 -55 -113 -52 2158 -52 1152 0 2102 3 2111 6
40 16 45 52 45 308 l0 244 101 4 c141 4 139 0 139 228 0 96 -3 185 -6 198 -9
31 -53 52 -109 52 l-45 0 -1 658 c0 361 -2 668 -5 682 -4 24 -9 39 -35 94 -29
62 -120 135 -189 152 -19 4 -38 9 -42 10 -5 1 -17 2 -28 3 -20 1 -20 8 -20
452 0 298 -4 465 -11 494 -13 51 -73 125 -122 151 -47 26 -262 32 -305 10 -18
-9 -34 -26 -37 -39 -3 -12 -4 -500 -3 -1084 3 -1005 4 -1063 21 -1080 15 -16
37 -18 155 -18 l137 0 51 34 c57 38 103 105 109 160 2 20 4 200 4 400 l1 364
32 -7 c43 -9 97 -52 114 -92 11 -27 14 -128 14 -528 l0 -495 -381 -3 -380 -3
-19 -25 c-17 -22 -20 -42 -20 -157 l0 -133 -160 0 -160 0 0 53 c0 137 -69 231
-189 259 l-51 11 -1 56 c-1 68 -5 98 -20 131 -7 14 -17 36 -23 50 -17 39 -89
105 -142 130 -44 21 -66 24 -209 28 -88 2 -161 5 -162 6 -1 1 -3 81 -4 178 -1
164 -13 265 -38 323 -5 11 -17 39 -27 63 -41 99 -128 207 -224 279 -66 50
-146 88 -295 142 -326 117 -295 102 -295 138 0 30 5 35 58 59 193 90 337 260
399 471 15 51 17 127 21 642 3 625 3 634 -46 652 -14 5 -242 9 -541 8 -428 -1
-525 -4 -566 -17z"/>
<path d="M3200 3360 c-18 -38 -32 -71 -29 -74 5 -5 467 -236 472 -236 6 0 71
140 66 144 -5 5 -467 236 -472 236 -2 0 -18 -31 -37 -70z"/>
<path d="M3200 2800 l0 -80 240 0 240 0 0 80 0 80 -240 0 -240 0 0 -80z"/>
<path d="M3405 2433 c-126 -63 -232 -117 -234 -119 -5 -4 60 -144 66 -144 5 0
467 231 472 236 6 5 -61 144 -68 143 -3 0 -109 -52 -236 -116z"/>
</g>
</svg>
